<svg xmlns="http://www.w3.org/2000/svg" width="1733" height="517" viewBox="0 0 1733 517">
  <path d="M 804 513 L 951 515 L 976 480 L 1005 515 L 1615 515 L 1650 423 L 1021 423 L 1116 154 L 937 154 L 905 239 L 935 243 L 874 415 Z M 988 15 L 987 21 L 982 32 L 976 52 L 969 69 L 969 72 L 957 103 L 955 112 L 949 127 L 949 132 L 956 131 L 1117 132 L 1121 130 L 1122 124 L 1158 19 L 1158 15 Z M 927 15 L 585 15 L 411 515 L 556 515 L 699 107 L 750 111 L 660 370 L 631 371 L 601 460 L 770 460 Z M 163 15 L 1 515 L 264 487 L 261 515 L 386 515 L 407 356 L 278 355 L 272 398 L 181 406 L 207 333 L 443 332 L 555 15 Z M 235 246 L 244 218 L 246 216 L 341 216 L 342 217 L 337 229 L 336 236 L 331 247 L 236 247 Z M 271 139 L 280 113 L 280 110 L 282 107 L 376 107 L 377 108 L 368 137 L 365 140 L 272 140 Z M 1191 36 L 1159 122 L 1218 123 L 1152 197 L 1129 258 L 1345 259 L 1331 294 L 1108 294 L 1075 377 L 1300 377 L 1291 406 L 1439 406 L 1450 377 L 1635 376 L 1665 294 L 1480 292 L 1494 257 L 1643 257 L 1673 180 L 1522 180 L 1534 143 L 1388 143 L 1374 180 L 1328 179 L 1380 122 L 1697 122 L 1731 37 L 1462 36 L 1493 1 L 1338 1 L 1302 36 Z" fill="#8290FF" fill-rule="evenodd"/>
</svg>
